<svg width="26" height="25" viewBox="0 0 26 25" fill="none" xmlns="http://www.w3.org/2000/svg">
<g clip-path="url(#clip0_1_441)">
<path d="M4.32478 5H0.670044V3.125H5.7653L6.68197 6.5625H25.6037L22.6626 19.0625H8.07478L4.32478 5ZM10.8222 19.6831C9.29826 19.6831 8.0585 20.9229 8.0585 22.4468C8.0585 23.9711 9.29826 25.2112 10.8222 25.2112C12.3461 25.2112 13.586 23.9711 13.586 22.4468C13.586 20.9229 12.3461 19.6831 10.8222 19.6831ZM10.8222 23.4254C10.2829 23.4254 9.84421 22.9863 9.84421 22.4467C9.84421 21.9074 10.2829 21.4687 10.8222 21.4687C11.3615 21.4687 11.8003 21.9074 11.8003 22.4467C11.8003 22.9863 11.3615 23.4254 10.8222 23.4254ZM20.0414 19.6831C18.5174 19.6831 17.2775 20.9229 17.2775 22.4468C17.2775 23.9711 18.5173 25.2112 20.0414 25.2112C21.5654 25.2112 22.8054 23.9711 22.8054 22.4468C22.8054 20.9229 21.5654 19.6831 20.0414 19.6831ZM20.0414 23.4254C19.5021 23.4254 19.0633 22.9863 19.0633 22.4467C19.0633 21.9074 19.5021 21.4687 20.0414 21.4687C20.5808 21.4687 21.0197 21.9074 21.0197 22.4467C21.0197 22.9863 20.5809 23.4254 20.0414 23.4254ZM7.18197 8.4375L9.5153 17.1875H21.1775L23.2364 8.4375H7.18197Z" fill="black"/>
<mask id="mask0_1_441" style="mask-type:luminance" maskUnits="userSpaceOnUse" x="0" y="3" width="26" height="23">
<path fill-rule="evenodd" clip-rule="evenodd" d="M4.32478 5H0.670044V3.125H5.7653L6.68197 6.5625H25.6037L22.6626 19.0625H8.07478L4.32478 5ZM10.8222 19.6831C9.29826 19.6831 8.0585 20.9229 8.0585 22.4468C8.0585 23.9711 9.29826 25.2112 10.8222 25.2112C12.3461 25.2112 13.586 23.9711 13.586 22.4468C13.586 20.9229 12.3461 19.6831 10.8222 19.6831ZM10.8222 23.4254C10.2829 23.4254 9.84421 22.9863 9.84421 22.4467C9.84421 21.9074 10.2829 21.4687 10.8222 21.4687C11.3615 21.4687 11.8003 21.9074 11.8003 22.4467C11.8003 22.9863 11.3615 23.4254 10.8222 23.4254ZM20.0414 19.6831C18.5174 19.6831 17.2775 20.9229 17.2775 22.4468C17.2775 23.9711 18.5173 25.2112 20.0414 25.2112C21.5654 25.2112 22.8054 23.9711 22.8054 22.4468C22.8054 20.9229 21.5654 19.6831 20.0414 19.6831ZM20.0414 23.4254C19.5021 23.4254 19.0633 22.9863 19.0633 22.4467C19.0633 21.9074 19.5021 21.4687 20.0414 21.4687C20.5808 21.4687 21.0197 21.9074 21.0197 22.4467C21.0197 22.9863 20.5809 23.4254 20.0414 23.4254ZM7.18197 8.4375L9.5153 17.1875H21.1775L23.2364 8.4375H7.18197Z" fill="white"/>
</mask>
<g mask="url(#mask0_1_441)">
<path d="M25.67 0H0.670044V25H25.67V0Z" fill="black"/>
</g>
</g>
<defs>
<clipPath id="clip0_1_441">
<rect width="25" height="25" fill="white" transform="translate(0.670044)"/>
</clipPath>
</defs>
</svg>
